<?xml version="1.0" encoding="UTF-8" standalone="no"?>
<!-- Created with Inkscape (http://www.inkscape.org/) -->

<svg
   xmlns:dc="http://purl.org/dc/elements/1.1/"
   xmlns:cc="http://creativecommons.org/ns#"
   xmlns:rdf="http://www.w3.org/1999/02/22-rdf-syntax-ns#"
   xmlns:svg="http://www.w3.org/2000/svg"
   xmlns="http://www.w3.org/2000/svg"
   version="1.1"
   width="32"
   height="32"
   viewBox="0 0 32 32"
   id="svg2">
  <metadata
     id="metadata13">
    <rdf:RDF>
      <cc:Work
         rdf:about="">
        <dc:format>image/svg+xml</dc:format>
        <dc:type
           rdf:resource="http://purl.org/dc/dcmitype/StillImage" />
        <dc:title></dc:title>
      </cc:Work>
    </rdf:RDF>
  </metadata>
  <defs
     id="defs6" />
  <g
     id="Icons new Arranged Names"
     style="fill:#ffffff;fill-rule:evenodd;stroke:none">
    <g
       id="101 Warning"
       style="fill:#ffffff">
      <path
         d="m 14.424233,6.1483927 c 0.870066,-1.4076629 2.282795,-1.4043083 3.150787,0 L 28.36011,23.59738 C 29.521639,25.476595 28.675546,27 26.471407,27 L 5.5278464,27 C 3.3232156,27 2.4738632,25.482664 3.6391433,23.59738 z M 16,20 c 0.552285,0 1,-0.453036 1,-0.99703 l 0,-6.00594 C 17,12.446386 16.556135,12 16,12 c -0.552285,0 -1,0.453036 -1,0.99703 l 0,6.00594 C 15,19.553614 15.443865,20 16,20 z m 0,4 c 0.552285,0 1,-0.447715 1,-1 0,-0.552285 -0.447715,-1 -1,-1 -0.552285,0 -1,0.447715 -1,1 0,0.552285 0.447715,1 1,1 z m 0,0"
         id="Triangle 29"
         style="fill:#ffffff" />
    </g>
  </g>
</svg>
