<?xml version="1.0" encoding="UTF-8" standalone="no"?>
<!-- Created with Inkscape (http://www.inkscape.org/) -->

<svg
   xmlns:dc="http://purl.org/dc/elements/1.1/"
   xmlns:cc="http://creativecommons.org/ns#"
   xmlns:rdf="http://www.w3.org/1999/02/22-rdf-syntax-ns#"
   xmlns:svg="http://www.w3.org/2000/svg"
   xmlns="http://www.w3.org/2000/svg"
   version="1.1"
   width="96.002502"
   height="96"
   id="svg2">
  <defs
     id="defs4">
    <marker
       refX="0"
       refY="0"
       orient="auto"
       id="Arrow2Sstart"
       style="overflow:visible">
      <path
         d="M 8.7185878,4.0337352 -2.2072895,0.01601326 8.7185884,-4.0017078 c -1.7454984,2.3720609 -1.7354408,5.6174519 -6e-7,8.035443 z"
         transform="matrix(0.3,0,0,0.3,-0.69,0)"
         id="path5260"
         style="fill-rule:evenodd;stroke-width:0.625;stroke-linejoin:round" />
    </marker>
    <linearGradient
       id="linearGradient5220">
      <stop
         id="stop5222"
         style="stop-color:#787878;stop-opacity:1"
         offset="0" />
    </linearGradient>
  </defs>
  <metadata
     id="metadata7">
    <rdf:RDF>
      <cc:Work
         rdf:about="">
        <dc:format>image/svg+xml</dc:format>
        <dc:type
           rdf:resource="http://purl.org/dc/dcmitype/StillImage" />
        <dc:title></dc:title>
      </cc:Work>
    </rdf:RDF>
  </metadata>
  <g
     transform="translate(-0.06,-956.40625)"
     id="layer1"
     style="display:inline">
    <path
       d="m 0.5927709,956.95535 c 8.5591238,0 17.1182471,0 25.6773731,0 0,8.69374 0,17.38525 0,26.0802 -8.559126,0 -17.1182493,0 -25.6773731,0 0,-8.69495 0,-17.38646 0,-26.0802 z"
       id="rect2985"
       style="fill:#f2f2f2;fill-rule:evenodd;stroke:#787878;stroke-width:1.01319349;stroke-linecap:butt;stroke-miterlimit:3.9000001;stroke-opacity:1;stroke-dasharray:none" />
    <path
       d="m 35.157864,956.91098 c 8.559126,0 17.118255,0 25.677381,0 0,8.69333 0,17.38625 0,26.07898 -8.559126,0 -17.118255,0 -25.677381,0 0,-8.69273 0,-17.38565 0,-26.07898 z"
       id="rect2985-3"
       style="fill:#f2f2f2;fill-rule:evenodd;stroke:#787878;stroke-width:1.01319349;stroke-linecap:butt;stroke-miterlimit:3.9000001;stroke-opacity:1;stroke-dasharray:none" />
    <path
       d="m 69.869904,956.99022 c 8.559109,0 17.118247,0 25.677371,0 0,8.69232 0,17.38645 0,26.07816 -8.559124,0 -17.118262,0 -25.677371,0 0,-8.69171 0,-17.38584 0,-26.07816 z"
       id="rect2985-3-4"
       style="fill:#f2f2f2;fill-rule:evenodd;stroke:#787878;stroke-width:1.01319349;stroke-linecap:butt;stroke-miterlimit:3.9000001;stroke-opacity:1;stroke-dasharray:none" />
    <path
       d="m 0.5193007,991.25245 c 8.5591255,0 17.1182493,0 25.6773733,0 0,8.69394 0,17.38585 0,26.07855 -8.559124,0 -17.1182478,0 -25.6773733,0 0,-8.6927 0,-17.38461 0,-26.07855 z"
       id="rect2985-7"
       style="fill:#f2f2f2;fill-rule:evenodd;stroke:#787878;stroke-width:1.01319349;stroke-linecap:butt;stroke-miterlimit:3.9000001;stroke-opacity:1;stroke-dasharray:none" />
    <path
       d="m 35.084403,991.49279 c 8.559121,0 17.118247,0 25.677386,0 0,8.69591 0,17.38761 0,26.07961 -8.559139,0 -17.118265,0 -25.677386,0 0,-8.692 0,-17.3837 0,-26.07961 z"
       id="rect2985-3-7"
       style="fill:#f2f2f2;fill-rule:evenodd;stroke:#787878;stroke-width:1.01319349;stroke-linecap:butt;stroke-miterlimit:3.9000001;stroke-opacity:1;stroke-dasharray:none" />
    <path
       d="m 69.796428,991.28649 c 8.559129,0 17.118253,0 25.677382,0 0,8.69313 0,17.38641 0,26.07891 -8.559129,0 -17.118253,0 -25.677382,0 0,-8.6925 0,-17.38578 0,-26.07891 z"
       id="rect2985-3-4-4"
       style="fill:#f2f2f2;fill-rule:evenodd;stroke:#787878;stroke-width:1.01319349;stroke-linecap:butt;stroke-miterlimit:3.9000001;stroke-opacity:1;stroke-dasharray:none" />
    <path
       d="m 0.5193007,1025.7796 c 8.5591255,0 17.1182493,0 25.6773733,0 0,8.6913 0,17.3844 0,26.0777 -8.559124,0 -17.1182478,0 -25.6773733,0 0,-8.6933 0,-17.3864 0,-26.0777 z"
       id="rect2985-7-3"
       style="fill:#f2f2f2;fill-rule:evenodd;stroke:#787878;stroke-width:1.01319349;stroke-linecap:butt;stroke-miterlimit:3.9000001;stroke-opacity:1;stroke-dasharray:none" />
    <path
       d="m 35.084403,1025.7335 c 8.559121,0 17.118247,0 25.677386,0 0,8.6936 0,17.3867 0,26.0794 -8.559139,0 -17.118265,0 -25.677386,0 0,-8.6927 0,-17.3858 0,-26.0794 z"
       id="rect2985-3-7-1"
       style="fill:#f2f2f2;fill-rule:evenodd;stroke:#787878;stroke-width:1.01319349;stroke-linecap:butt;stroke-miterlimit:3.9000001;stroke-opacity:1;stroke-dasharray:none" />
    <path
       d="m 69.796428,1025.813 c 8.559129,0 17.118253,0 25.677382,0 0,8.6935 0,17.3862 0,26.0787 -8.559129,0 -17.118253,0 -25.677382,0 0,-8.6925 0,-17.3852 0,-26.0787 z"
       id="rect2985-3-4-4-1"
       style="fill:#f2f2f2;fill-rule:evenodd;stroke:#787878;stroke-width:1.01319349;stroke-linecap:butt;stroke-miterlimit:3.9000001;stroke-opacity:1;stroke-dasharray:none" />
  </g>
</svg>
