<?xml version="1.0" encoding="UTF-8" standalone="no"?>
<!-- Created with Inkscape (http://www.inkscape.org/) -->

<svg
   xmlns:dc="http://purl.org/dc/elements/1.1/"
   xmlns:cc="http://creativecommons.org/ns#"
   xmlns:rdf="http://www.w3.org/1999/02/22-rdf-syntax-ns#"
   xmlns:svg="http://www.w3.org/2000/svg"
   xmlns="http://www.w3.org/2000/svg"
   version="1.1"
   width="96"
   height="96"
   id="svg2"
   style="enable-background:new">
  <defs
     id="defs4">
    <marker
       refX="0"
       refY="0"
       orient="auto"
       id="DotL"
       style="overflow:visible">
      <path
         d="m -2.5,-1 c 0,2.76 -2.24,5 -5,5 -2.76,0 -5,-2.24 -5,-5 0,-2.76 2.24,-5 5,-5 2.76,0 5,2.24 5,5 z"
         transform="matrix(0.8,0,0,0.8,5.92,0.8)"
         id="path5291"
         style="fill-rule:evenodd;stroke:#000000;stroke-width:1pt" />
    </marker>
    <marker
       refX="0"
       refY="0"
       orient="auto"
       id="Arrow2Sstart"
       style="overflow:visible">
      <path
         d="M 8.7185878,4.0337352 -2.2072895,0.01601326 8.7185884,-4.0017078 c -1.7454984,2.3720609 -1.7354408,5.6174519 -6e-7,8.035443 z"
         transform="matrix(0.3,0,0,0.3,-0.69,0)"
         id="path5260"
         style="fill-rule:evenodd;stroke-width:0.625;stroke-linejoin:round" />
    </marker>
    <linearGradient
       id="linearGradient5220">
      <stop
         id="stop5222"
         style="stop-color:#787878;stop-opacity:1"
         offset="0" />
    </linearGradient>
  </defs>
  <metadata
     id="metadata7">
    <rdf:RDF>
      <cc:Work
         rdf:about="">
        <dc:format>image/svg+xml</dc:format>
        <dc:type
           rdf:resource="http://purl.org/dc/dcmitype/StillImage" />
        <dc:title></dc:title>
      </cc:Work>
    </rdf:RDF>
  </metadata>
  <g
     transform="translate(16.84625,-1044.4063)"
     id="layer1"
     style="display:inline">
    <rect
       width="87.145386"
       height="12.912104"
       ry="1.3808852"
       x="-12.624197"
       y="1062.5485"
       id="rect6258"
       style="fill:#cccccc;fill-opacity:1;stroke:#797979;stroke-width:0.99694866;stroke-linejoin:round;stroke-miterlimit:4;stroke-opacity:1;stroke-dasharray:none" />
    <rect
       width="94.738548"
       height="60.672737"
       rx="2.053966"
       ry="2.4121633"
       x="-16.162834"
       y="1066.1218"
       id="rect7201"
       style="fill:#f2f2f2;fill-opacity:1;stroke:#707070;stroke-width:0.98748958;stroke-linecap:round;stroke-linejoin:round;stroke-miterlimit:3.9000001;stroke-opacity:1;stroke-dasharray:none" />
    <path
       d="m -8.0102885,1063.2225 1.9816333,-4.9517 c 12.4105999,0.1261 23.8024982,0 36.0351612,0 l 1.817391,4.9339"
       id="path6263"
       style="fill:#cccccc;fill-opacity:1;stroke:#797979;stroke-width:0.8683843px;stroke-opacity:1;marker-start:none;marker-mid:none" />
    <path
       d="m -8.4761884,1063.4242 41.0390934,0.033"
       id="path7229"
       style="fill:#f9f9f9;stroke:#cecece;stroke-width:0.79164368;stroke-linecap:butt;stroke-linejoin:round;stroke-miterlimit:4;stroke-opacity:1;stroke-dasharray:none" />
  </g>
</svg>
