<?xml version="1.0" encoding="UTF-8" standalone="no"?>
<!-- Created with Inkscape (http://www.inkscape.org/) -->

<svg
   xmlns:dc="http://purl.org/dc/elements/1.1/"
   xmlns:cc="http://creativecommons.org/ns#"
   xmlns:rdf="http://www.w3.org/1999/02/22-rdf-syntax-ns#"
   xmlns:svg="http://www.w3.org/2000/svg"
   xmlns="http://www.w3.org/2000/svg"
   version="1.1"
   width="16"
   height="16"
   viewBox="0 0 16 16"
   id="Layer_1"
   xml:space="preserve"><metadata
     id="metadata15"><rdf:RDF><cc:Work
         rdf:about=""><dc:format>image/svg+xml</dc:format><dc:type
           rdf:resource="http://purl.org/dc/dcmitype/StillImage" /><dc:title></dc:title></cc:Work></rdf:RDF></metadata><defs
     id="defs13" /><g
     transform="translate(0,-496)"
     id="g3"><path
       d="m 8.0062528,498 0,0 c -2.4979902,0 -4.8677982,1.12125 -6.6873608,3.15375 L 1,501.51 l 0.3095129,0.3675 1.0098261,1.2 0.2907546,0.345 0.3001338,-0.33 C 4.3014739,501.55875 6.1085309,500.71125 8,500.71125 c 1.8914691,0 3.701653,0.8475 5.089773,2.38125 l 0.300133,0.33 0.290754,-0.345 1.009827,-1.2 L 15,501.51 14.681108,501.15375 C 12.867798,499.12125 10.494864,498 8.0062528,498 z"
       id="path5"
       style="fill:#ffffff" /><path
       d="m 12.423849,504.015 c -1.213041,-1.31625 -2.7793653,-2.04 -4.4113434,-2.04 H 8.0093791 8 7.7342564 l -0.00316,0.007 c -1.538187,0.0751 -3.0013402,0.79127 -4.1456003,2.03252 l -0.328272,0.35625 0.3157656,0.375 1.0223315,1.215 0.284502,0.3375 0.3001346,-0.315 c 0.790978,-0.8325 1.7945506,-1.29375 2.823135,-1.29375 1.0348374,0 2.0384102,0.46125 2.8293872,1.29375 l 0.300136,0.315 0.284502,-0.3375 1.022331,-1.215 0.315766,-0.375 -0.331399,-0.35625 z"
       id="path7"
       style="fill:#ffffff" /><path
       d="m 8.0093791,510 0.3001338,-0.35625 1.6507374,-1.9575 0.3313977,-0.39375 -0.3626615,-0.35625 c -0.4814652,-0.4275 -1.0129525,-0.75 -1.9227337,-0.75 -0.9066549,0 -1.4037521,0.3525 -1.9227338,0.75 l -0.3595349,0.35625 0.3313975,0.39375 1.6507374,1.9575 L 8.0093791,510 z"
       id="path9"
       style="fill:#ffffff" /></g></svg>